<svg width="24" height="25" viewBox="0 0 24 25" fill="none" xmlns="http://www.w3.org/2000/svg">
<g clip-path="url(#clip0_177_75)">
<path d="M18 10.2695H24L21 6.26953L18 10.2695ZM18 14.2695H24L21 18.2695L18 14.2695Z" fill="url(#paint0_radial_177_75)"/>
<path d="M1 0.269531H7V24.2695H1C0.734784 24.2695 0.480429 24.1642 0.292892 23.9766C0.105356 23.7891 0 23.5347 0 23.2695V1.26953C0 1.00431 0.105356 0.74996 0.292892 0.562424C0.480429 0.374887 0.734784 0.269531 1 0.269531Z" fill="url(#paint1_radial_177_75)"/>
<path d="M9 0.269531H15C15.2652 0.269531 15.5196 0.374887 15.7071 0.562424C15.8946 0.74996 16 1.00431 16 1.26953V23.2695C16 23.5347 15.8946 23.7891 15.7071 23.9766C15.5196 24.1642 15.2652 24.2695 15 24.2695H9V0.269531Z" fill="url(#paint2_radial_177_75)"/>
</g>
<defs>
<radialGradient id="paint0_radial_177_75" cx="0" cy="0" r="1" gradientUnits="userSpaceOnUse" gradientTransform="translate(18.2496 -4.01282) scale(6.51506 106.847)">
<stop stop-color="#9500FF"/>
<stop offset="0.17" stop-color="#7C1FFF"/>
<stop offset="0.55" stop-color="#3B71FF"/>
<stop offset="0.66" stop-color="#366CFB"/>
<stop offset="0.78" stop-color="#295EEF"/>
<stop offset="0.91" stop-color="#1447DB"/>
<stop offset="1" stop-color="#0032C9"/>
</radialGradient>
<radialGradient id="paint1_radial_177_75" cx="0" cy="0" r="1" gradientUnits="userSpaceOnUse" gradientTransform="translate(0.291248 -20.2952) scale(7.60091 213.694)">
<stop stop-color="#9500FF"/>
<stop offset="0.17" stop-color="#7C1FFF"/>
<stop offset="0.55" stop-color="#3B71FF"/>
<stop offset="0.66" stop-color="#366CFB"/>
<stop offset="0.78" stop-color="#295EEF"/>
<stop offset="0.91" stop-color="#1447DB"/>
<stop offset="1" stop-color="#0032C9"/>
</radialGradient>
<radialGradient id="paint2_radial_177_75" cx="0" cy="0" r="1" gradientUnits="userSpaceOnUse" gradientTransform="translate(9.29125 -20.2952) scale(7.60091 213.694)">
<stop stop-color="#9500FF"/>
<stop offset="0.17" stop-color="#7C1FFF"/>
<stop offset="0.55" stop-color="#3B71FF"/>
<stop offset="0.66" stop-color="#366CFB"/>
<stop offset="0.78" stop-color="#295EEF"/>
<stop offset="0.91" stop-color="#1447DB"/>
<stop offset="1" stop-color="#0032C9"/>
</radialGradient>
<clipPath id="clip0_177_75">
<rect width="24" height="24" fill="white" transform="translate(0 0.269531)"/>
</clipPath>
</defs>
</svg>
