<svg width="24" height="25" viewBox="0 0 24 25" fill="none" xmlns="http://www.w3.org/2000/svg">
<path d="M23 6.26953V2.26953C23 2.00431 22.8946 1.74996 22.7071 1.56242C22.5196 1.37489 22.2652 1.26953 22 1.26953H2C1.73478 1.26953 1.48043 1.37489 1.29289 1.56242C1.10536 1.74996 1 2.00431 1 2.26953V6.26953H23Z" fill="white"/>
<path d="M1 8.26953V22.2695C1 22.5347 1.10536 22.7891 1.29289 22.9766C1.48043 23.1642 1.73478 23.2695 2 23.2695H7V8.26953H1Z" fill="white"/>
<path d="M9 23.2695H22C22.2652 23.2695 22.5196 23.1642 22.7071 22.9766C22.8946 22.7891 23 22.5347 23 22.2695V8.26953H9V23.2695Z" fill="white"/>
</svg>
