<svg width="24" height="25" viewBox="0 0 24 25" fill="none" xmlns="http://www.w3.org/2000/svg">
<path d="M5 1.26953H2C1.73478 1.26953 1.48043 1.37489 1.29289 1.56242C1.10536 1.74996 1 2.00431 1 2.26953V22.2695C1 22.5347 1.10536 22.7891 1.29289 22.9766C1.48043 23.1642 1.73478 23.2695 2 23.2695H5V1.26953Z" fill="white"/>
<path d="M7 23.2695H17V1.26953H7V23.2695ZM12 19.2695C11.7348 19.2695 11.4804 19.1642 11.2929 18.9766C11.1054 18.7891 11 18.5347 11 18.2695C11 18.0043 11.1054 17.75 11.2929 17.5624C11.4804 17.3749 11.7348 17.2695 12 17.2695C12.2652 17.2695 12.5196 17.3749 12.7071 17.5624C12.8946 17.75 13 18.0043 13 18.2695C13 18.5347 12.8946 18.7891 12.7071 18.9766C12.5196 19.1642 12.2652 19.2695 12 19.2695ZM12 5.26953C12.2652 5.26953 12.5196 5.37489 12.7071 5.56242C12.8946 5.74996 13 6.00431 13 6.26953C13 6.53475 12.8946 6.7891 12.7071 6.97664C12.5196 7.16418 12.2652 7.26953 12 7.26953C11.7348 7.26953 11.4804 7.16418 11.2929 6.97664C11.1054 6.7891 11 6.53475 11 6.26953C11 6.00431 11.1054 5.74996 11.2929 5.56242C11.4804 5.37489 11.7348 5.26953 12 5.26953ZM12 11.2695C12.2652 11.2695 12.5196 11.3749 12.7071 11.5624C12.8946 11.75 13 12.0043 13 12.2695C13 12.5347 12.8946 12.7891 12.7071 12.9766C12.5196 13.1642 12.2652 13.2695 12 13.2695C11.7348 13.2695 11.4804 13.1642 11.2929 12.9766C11.1054 12.7891 11 12.5347 11 12.2695C11 12.0043 11.1054 11.75 11.2929 11.5624C11.4804 11.3749 11.7348 11.2695 12 11.2695Z" fill="white"/>
<path d="M22 1.26953H19V23.2695H22C22.2652 23.2695 22.5196 23.1642 22.7071 22.9766C22.8946 22.7891 23 22.5347 23 22.2695V2.26953C23 2.00431 22.8946 1.74996 22.7071 1.56242C22.5196 1.37489 22.2652 1.26953 22 1.26953Z" fill="white"/>
</svg>
