<svg width="24" height="25" viewBox="0 0 24 25" fill="none" xmlns="http://www.w3.org/2000/svg">
<path d="M23 5.26953L23 2.26953C23 2.00431 22.8946 1.74996 22.7071 1.56242C22.5196 1.37489 22.2652 1.26953 22 1.26953L2 1.26953C1.73478 1.26953 1.48043 1.37489 1.29289 1.56242C1.10536 1.74996 1 2.00431 1 2.26953L1 5.26953L23 5.26953Z" fill="white"/>
<path d="M1 7.26953L1 17.2695L23 17.2695L23 7.26953L1 7.26953ZM5 12.2695C5 12.0043 5.10536 11.75 5.29289 11.5624C5.48043 11.3749 5.73478 11.2695 6 11.2695C6.26522 11.2695 6.51957 11.3749 6.70711 11.5624C6.89464 11.75 7 12.0043 7 12.2695C7 12.5347 6.89464 12.7891 6.70711 12.9766C6.51957 13.1642 6.26522 13.2695 6 13.2695C5.73478 13.2695 5.48043 13.1642 5.29289 12.9766C5.10536 12.7891 5 12.5347 5 12.2695ZM19 12.2695C19 12.5347 18.8946 12.7891 18.7071 12.9766C18.5196 13.1642 18.2652 13.2695 18 13.2695C17.7348 13.2695 17.4804 13.1642 17.2929 12.9766C17.1054 12.7891 17 12.5347 17 12.2695C17 12.0043 17.1054 11.75 17.2929 11.5624C17.4804 11.3749 17.7348 11.2695 18 11.2695C18.2652 11.2695 18.5196 11.3749 18.7071 11.5624C18.8946 11.75 19 12.0043 19 12.2695ZM13 12.2695C13 12.5347 12.8946 12.7891 12.7071 12.9766C12.5196 13.1642 12.2652 13.2695 12 13.2695C11.7348 13.2695 11.4804 13.1642 11.2929 12.9766C11.1054 12.7891 11 12.5347 11 12.2695C11 12.0043 11.1054 11.75 11.2929 11.5624C11.4804 11.3749 11.7348 11.2695 12 11.2695C12.2652 11.2695 12.5196 11.3749 12.7071 11.5624C12.8946 11.75 13 12.0043 13 12.2695Z" fill="white"/>
<path d="M23 22.2695L23 19.2695L1 19.2695L1 22.2695C1 22.5347 1.10536 22.7891 1.29289 22.9766C1.48043 23.1642 1.73478 23.2695 2 23.2695L22 23.2695C22.2652 23.2695 22.5196 23.1642 22.7071 22.9766C22.8946 22.7891 23 22.5347 23 22.2695Z" fill="white"/>
</svg>
