<svg width="59" height="60" viewBox="0 0 59 60" fill="none" xmlns="http://www.w3.org/2000/svg">
<path d="M29.5 55.9913C25.1534 55.9913 20.9848 54.2646 17.9113 51.1911C14.8378 48.1176 13.1111 43.949 13.1111 39.6024V19.9358C13.1111 15.5892 14.8378 11.4206 17.9113 8.34707C20.9848 5.27356 25.1534 3.54688 29.5 3.54688C33.8466 3.54688 38.0152 5.27356 41.0887 8.34707C44.1622 11.4206 45.8889 15.5892 45.8889 19.9358V39.6024C45.8889 41.7547 45.465 43.8858 44.6414 45.8742C43.8177 47.8626 42.6105 49.6693 41.0887 51.1911C39.5669 52.713 37.7602 53.9202 35.7718 54.7438C33.7834 55.5674 31.6522 55.9913 29.5 55.9913ZM29.5 6.82465C26.0227 6.82465 22.6879 8.206 20.229 10.6648C17.7702 13.1236 16.3889 16.4585 16.3889 19.9358V39.6024C16.3889 43.0797 17.7702 46.4146 20.229 48.8734C22.6879 51.3322 26.0227 52.7135 29.5 52.7135C32.9773 52.7135 36.3122 51.3322 38.771 48.8734C41.2298 46.4146 42.6111 43.0797 42.6111 39.6024V19.9358C42.6111 16.4585 41.2298 13.1236 38.771 10.6648C36.3122 8.206 32.9773 6.82465 29.5 6.82465Z" fill="white"/>
<path d="M29.5 24.8524C29.0653 24.8524 28.6485 24.6797 28.3411 24.3724C28.0338 24.065 27.8611 23.6481 27.8611 23.2135V16.6579C27.8611 16.2233 28.0338 15.8064 28.3411 15.4991C28.6485 15.1917 29.0653 15.019 29.5 15.019C29.9347 15.019 30.3515 15.1917 30.6589 15.4991C30.9662 15.8064 31.1389 16.2233 31.1389 16.6579V23.2135C31.1389 23.6481 30.9662 24.065 30.6589 24.3724C30.3515 24.6797 29.9347 24.8524 29.5 24.8524Z" fill="white"/>
</svg>
