<svg width="41" height="42" viewBox="0 0 41 42" fill="none" xmlns="http://www.w3.org/2000/svg">
<path fill-rule="evenodd" clip-rule="evenodd" d="M0 21C0 9.40202 9.17816 0 20.5 0C31.8218 0 41 9.40202 41 21C41 32.598 31.8218 42 20.5 42C9.17816 42 0 32.598 0 21Z" fill="#AF19AC"/>
<path fill-rule="evenodd" clip-rule="evenodd" d="M31.4333 20.9845C31.4333 21.7419 31.358 22.4983 31.2102 23.2356C31.066 23.9554 30.8525 24.662 30.5727 25.3376C30.2994 26.0011 29.9604 26.6406 29.5642 27.2369C29.174 27.8295 28.7244 28.3855 28.2306 28.8922C27.7357 29.3968 27.1911 29.8561 26.6129 30.2575C26.0289 30.6605 25.4037 31.0073 24.7556 31.2886C24.0952 31.5737 23.4038 31.7921 22.7017 31.9395C21.981 32.0914 21.24 32.1689 20.4995 32.1689C19.7585 32.1689 19.0174 32.0914 18.2978 31.9395C17.5947 31.7921 16.9033 31.5737 16.2434 31.2886C15.5953 31.0073 14.9695 30.6605 14.3855 30.2575C13.8073 29.8561 13.2627 29.3968 12.7689 28.8922C12.2745 28.3855 11.825 27.8295 11.4342 27.2369C11.0402 26.6406 10.7006 26.0011 10.4262 25.3376C10.1464 24.662 9.93237 23.9553 9.78768 23.2356C9.64141 22.4983 9.56665 21.7419 9.56665 20.9845C9.56665 20.2265 9.64137 19.4685 9.78773 18.7328C9.93241 18.013 10.1465 17.3053 10.4263 16.6308C10.7007 15.9668 11.0402 15.3267 11.4342 14.7303C11.825 14.1373 12.2746 13.5824 12.7689 13.075C13.2628 12.5704 13.8073 12.1123 14.3855 11.7114C14.9696 11.3067 15.5953 10.96 16.2434 10.6782C16.9033 10.3925 17.5947 10.1735 18.2978 10.0272C19.0175 9.87647 19.7585 9.8 20.4995 9.8C21.24 9.8 21.981 9.87647 22.7018 10.0272C23.4038 10.1736 24.0952 10.3925 24.7556 10.6782C25.4037 10.9599 26.0289 11.3067 26.613 11.7114C27.1912 12.1123 27.7358 12.5704 28.2306 13.075C28.7245 13.5824 29.174 14.1373 29.5643 14.7303C29.9604 15.3267 30.2994 15.9668 30.5727 16.6308C30.8525 17.3053 31.066 18.013 31.2102 18.7328C31.358 19.4685 31.4333 20.2265 31.4333 20.9845ZM16.5156 12.3454C13.9119 13.6032 11.9685 16.0574 11.3626 19.0152C11.6087 19.0174 15.4996 19.0676 19.9826 17.8492C18.3666 14.9122 16.64 12.5153 16.5156 12.3454ZM20.7562 19.3199C15.9486 20.7922 11.3353 20.6863 11.1699 20.6797C11.1672 20.7824 11.1624 20.8818 11.1624 20.9845C11.1624 23.4381 12.0673 25.675 13.5547 27.3664C13.5515 27.3614 16.1067 22.7244 21.1454 21.0577C21.2671 21.0162 21.391 20.979 21.5138 20.943C21.2795 20.4002 21.0237 19.8562 20.7562 19.3199ZM26.6658 13.8161C25.0219 12.3334 22.8635 11.434 20.4995 11.434C19.7408 11.434 19.0046 11.528 18.2993 11.7016C18.4392 11.8939 20.193 14.2738 21.7898 17.273C25.3129 15.922 26.6428 13.8511 26.6658 13.8161ZM22.1503 22.5256C22.1295 22.5326 22.1087 22.5387 22.0883 22.5463C16.5793 24.5109 14.7803 28.47 14.7608 28.5132C16.3459 29.7742 18.3341 30.5349 20.4995 30.5349C21.7925 30.5349 23.0242 30.2656 24.1448 29.778C24.0065 28.9435 23.4641 26.0186 22.1503 22.5256ZM25.7171 28.9053C27.8136 27.4581 29.3026 25.1601 29.718 22.4982C29.5258 22.4349 26.9135 21.589 23.8997 22.0832C25.1244 25.526 25.622 28.3297 25.7171 28.9053ZM22.5085 18.6962C22.7252 19.1517 22.9351 19.6153 23.1289 20.0812C23.1978 20.2483 23.265 20.4122 23.3307 20.576C26.5382 20.1631 29.6983 20.8577 29.8334 20.8861C29.812 18.6219 29.0202 16.544 27.7101 14.9171C27.6925 14.9427 26.195 17.1561 22.5085 18.6962Z" fill="white"/>
</svg>
