<svg width="41" height="42" viewBox="0 0 41 42" fill="none" xmlns="http://www.w3.org/2000/svg">
<path d="M41 21C41 9.40078 31.823 0 20.5 0C9.17695 0 0 9.40078 0 21C0 31.4836 7.49531 40.1707 17.2969 41.7457V27.0703H12.0918V21H17.2969V16.3734C17.2969 11.1111 20.3559 8.20312 25.0404 8.20312C27.2826 8.20312 29.6289 8.61328 29.6289 8.61328V13.7812H27.0424C24.4959 13.7812 23.7031 15.4014 23.7031 17.0625V21H29.3887L28.4798 27.0703H23.7031V41.7457C33.5047 40.1707 41 31.4836 41 21Z" fill="#AF19AC"/>
<path d="M28.4798 27.0703L29.3887 21H23.7031V17.0625C23.7031 15.4014 24.4959 13.7812 27.0424 13.7812H29.6289V8.61328C29.6289 8.61328 27.2826 8.20312 25.0404 8.20312C20.3559 8.20312 17.2969 11.1111 17.2969 16.3734V21H12.0918V27.0703H17.2969V41.7457C18.3419 41.9139 19.4109 42 20.5 42C21.5891 42 22.6581 41.9139 23.7031 41.7457V27.0703H28.4798Z" fill="white"/>
</svg>
