<svg width="41" height="42" viewBox="0 0 41 42" fill="none" xmlns="http://www.w3.org/2000/svg">
<path fill-rule="evenodd" clip-rule="evenodd" d="M0 21C0 9.40202 9.17816 0 20.5 0C31.8218 0 41 9.40202 41 21C41 32.598 31.8218 42 20.5 42C9.17816 42 0 32.598 0 21Z" fill="#AF19AC"/>
<path fill-rule="evenodd" clip-rule="evenodd" d="M20.501 9.8C17.5317 9.8 17.159 9.8133 15.9928 9.86767C14.8288 9.92227 14.0343 10.111 13.3391 10.388C12.62 10.6741 12.01 11.0567 11.4023 11.6795C10.7942 12.3021 10.4206 12.9269 10.1404 13.6633C9.86937 14.3757 9.68487 15.1898 9.63248 16.3817C9.58032 17.5764 9.56665 17.9584 9.56665 21.0001C9.56665 24.0419 9.57986 24.4225 9.63271 25.6171C9.68623 26.8095 9.87051 27.6234 10.1407 28.3355C10.4201 29.0721 10.7937 29.697 11.4016 30.3195C12.0091 30.9426 12.6191 31.3262 13.3378 31.6122C14.0334 31.8892 14.8281 32.078 15.9919 32.1326C17.1581 32.1869 17.5305 32.2002 20.4996 32.2002C23.4692 32.2002 23.8407 32.1869 25.007 32.1326C26.1709 32.078 26.9663 31.8892 27.662 31.6122C28.3808 31.3262 28.9899 30.9426 29.5974 30.3195C30.2056 29.697 30.5791 29.0721 30.8593 28.3357C31.1281 27.6234 31.3126 26.8092 31.3673 25.6174C31.4197 24.4227 31.4333 24.0419 31.4333 21.0001C31.4333 17.9584 31.4197 17.5766 31.3673 16.3819C31.3126 15.1896 31.1281 14.3757 30.8593 13.6636C30.5791 12.9269 30.2056 12.3021 29.5974 11.6795C28.9892 11.0565 28.3811 10.6738 27.6613 10.388C26.9643 10.111 26.1693 9.92227 25.0054 9.86767C23.8391 9.8133 23.4678 9.8 20.4976 9.8H20.501ZM19.5201 11.8183C19.8112 11.8179 20.1361 11.8183 20.501 11.8183C23.4202 11.8183 23.7662 11.8291 24.919 11.8827C25.985 11.9327 26.5636 12.1151 26.949 12.2684C27.4592 12.4714 27.823 12.7141 28.2054 13.1061C28.5881 13.4981 28.825 13.8714 29.0236 14.3941C29.1732 14.7885 29.3516 15.3811 29.4001 16.4731C29.4525 17.6538 29.4639 18.0085 29.4639 20.9975C29.4639 23.9866 29.4525 24.3412 29.4001 25.5219C29.3514 26.6139 29.1732 27.2066 29.0236 27.6009C28.8254 28.1236 28.5881 28.4958 28.2054 28.8875C27.8227 29.2795 27.4594 29.5222 26.949 29.7252C26.564 29.8792 25.985 30.0612 24.919 30.1111C23.7664 30.1648 23.4202 30.1765 20.501 30.1765C17.5815 30.1765 17.2355 30.1648 16.0829 30.1111C15.0169 30.0607 14.4384 29.8783 14.0527 29.725C13.5425 29.522 13.1781 29.2793 12.7954 28.8873C12.4127 28.4953 12.1758 28.1229 11.9772 27.6C11.8275 27.2057 11.6492 26.613 11.6007 25.521C11.5483 24.3403 11.5378 23.9856 11.5378 20.9947C11.5378 18.0038 11.5483 17.651 11.6007 16.4703C11.6494 15.3783 11.8275 14.7857 11.9772 14.3908C12.1754 13.8682 12.4127 13.4948 12.7954 13.1028C13.1781 12.7108 13.5425 12.4682 14.0527 12.2647C14.4381 12.1107 15.0169 11.9287 16.0829 11.8785C17.0915 11.8319 17.4824 11.8179 19.5201 11.8155V11.8183ZM26.3372 13.678C25.6128 13.678 25.0251 14.2793 25.0251 15.0216C25.0251 15.7636 25.6128 16.3656 26.3372 16.3656C27.0615 16.3656 27.6492 15.7636 27.6492 15.0216C27.6492 14.2796 27.0615 13.678 26.3372 13.678ZM20.501 15.2484C17.4003 15.2484 14.8862 17.8237 14.8862 21.0001C14.8862 24.1765 17.4003 26.7506 20.501 26.7506C23.6018 26.7506 26.1149 24.1765 26.1149 21.0001C26.1149 17.8237 23.6018 15.2484 20.501 15.2484ZM20.501 17.2667C22.5137 17.2667 24.1455 18.9381 24.1455 21.0001C24.1455 23.0618 22.5137 24.7335 20.501 24.7335C18.4881 24.7335 16.8565 23.0618 16.8565 21.0001C16.8565 18.9381 18.4881 17.2667 20.501 17.2667Z" fill="white"/>
</svg>
