<svg width="41" height="42" viewBox="0 0 41 42" fill="none" xmlns="http://www.w3.org/2000/svg">
<path fill-rule="evenodd" clip-rule="evenodd" d="M0 21C0 9.40202 9.17816 0 20.5 0C31.8218 0 41 9.40202 41 21C41 32.598 31.8218 42 20.5 42C9.17816 42 0 32.598 0 21Z" fill="#AF19AC"/>
<path d="M14.7931 12.9699C14.7629 11.5679 13.7842 10.5 12.1949 10.5C10.6057 10.5 9.56665 11.5679 9.56665 12.9699C9.56665 14.3428 10.575 15.4414 12.1346 15.4414H12.1643C13.7842 15.4414 14.7931 14.3428 14.7931 12.9699Z" fill="white"/>
<path d="M14.4871 17.3932H9.84137V31.6922H14.4871V17.3932Z" fill="white"/>
<path d="M25.8925 17.0574C28.9496 17.0574 31.2415 19.1015 31.2415 23.4935L31.2413 31.6921H26.5957V24.0422C26.5957 22.1207 25.9235 20.8095 24.2417 20.8095C22.9582 20.8095 22.1937 21.6934 21.8579 22.5472C21.7351 22.8531 21.705 23.2794 21.705 23.7068V31.6925H17.0586C17.0586 31.6925 17.1199 18.7353 17.0586 17.3935H21.705V19.4189C22.3216 18.4452 23.4259 17.0574 25.8925 17.0574Z" fill="white"/>
</svg>
