<svg width="41" height="42" viewBox="0 0 41 42" fill="none" xmlns="http://www.w3.org/2000/svg">
<path fill-rule="evenodd" clip-rule="evenodd" d="M0 21C0 9.40202 9.17816 0 20.5 0C31.8218 0 41 9.40202 41 21C41 32.598 31.8218 42 20.5 42C9.17816 42 0 32.598 0 21Z" fill="#AF19AC"/>
<path fill-rule="evenodd" clip-rule="evenodd" d="M19.886 17.0691L19.929 17.7957L19.2121 17.7067C16.6023 17.3657 14.3224 16.2089 12.3866 14.2663L11.4402 13.3024L11.1964 14.0142C10.6802 15.6009 11.01 17.2767 12.0854 18.4037C12.659 19.0266 12.53 19.1155 11.5405 18.7448C11.1964 18.6262 10.8953 18.5372 10.8666 18.5817C10.7662 18.6855 11.1104 20.035 11.3828 20.5688C11.7556 21.3103 12.5156 22.037 13.3473 22.467L14.0499 22.8081L13.2182 22.8229C12.4152 22.8229 12.3866 22.8378 12.4726 23.1492C12.7594 24.1131 13.8922 25.1363 15.154 25.5812L16.0431 25.8926L15.2688 26.3672C14.1216 27.0493 12.7737 27.4349 11.4258 27.4646C10.7806 27.4794 10.25 27.5387 10.25 27.5832C10.25 27.7315 11.9994 28.562 13.0175 28.8882C16.0718 29.8521 19.6996 29.4369 22.4241 27.7908C24.3599 26.6193 26.2957 24.291 27.1991 22.037C27.6866 20.8358 28.1742 18.641 28.1742 17.5881C28.1742 16.9059 28.2172 16.817 29.0202 16.0013C29.4934 15.5268 29.9379 15.0078 30.0239 14.8595C30.1673 14.5777 30.153 14.5777 29.4217 14.8298C28.2028 15.2747 28.0308 15.2154 28.633 14.548C29.0775 14.0735 29.6081 13.2134 29.6081 12.9613C29.6081 12.9168 29.393 12.9909 29.1492 13.1244C28.8911 13.2727 28.3176 13.4951 27.8874 13.6286L27.113 13.8807L26.4104 13.3913C26.0233 13.1244 25.4784 12.8278 25.1916 12.7388C24.4603 12.5312 23.3418 12.5609 22.6822 12.7982C20.8898 13.4655 19.757 15.1857 19.886 17.0691Z" fill="white"/>
</svg>
