<svg width="41" height="42" viewBox="0 0 41 42" fill="none" xmlns="http://www.w3.org/2000/svg">
<path fill-rule="evenodd" clip-rule="evenodd" d="M0 21C0 9.40202 9.17816 0 20.5 0C31.8218 0 41 9.40202 41 21C41 32.598 31.8218 42 20.5 42C9.17816 42 0 32.598 0 21Z" fill="#AF19AC"/>
<path fill-rule="evenodd" clip-rule="evenodd" d="M29.043 13.7807C29.9839 14.0452 30.7249 14.8245 30.9764 15.8141C31.4333 17.6077 31.4333 21.35 31.4333 21.35C31.4333 21.35 31.4333 25.0922 30.9764 26.886C30.7249 27.8756 29.9839 28.6549 29.043 28.9195C27.3379 29.4 20.5 29.4 20.5 29.4C20.5 29.4 13.6621 29.4 11.9568 28.9195C11.0159 28.6549 10.275 27.8756 10.0235 26.886C9.56665 25.0922 9.56665 21.35 9.56665 21.35C9.56665 21.35 9.56665 17.6077 10.0235 15.8141C10.275 14.8245 11.0159 14.0452 11.9568 13.7807C13.6621 13.3 20.5 13.3 20.5 13.3C20.5 13.3 27.3379 13.3 29.043 13.7807ZM18.45 18.2V25.2L23.9167 21.7001L18.45 18.2Z" fill="white"/>
</svg>
